<svg width="24" height="25" viewBox="0 0 24 25" fill="none" xmlns="http://www.w3.org/2000/svg">
<path d="M10 19.4341H4.7C3.761 19.4341 3 18.6381 3 17.6561V5.21208C3 4.23008 3.761 3.43408 4.7 3.43408H18.3C19.239 3.43408 20 4.23008 20 5.21208V9.43408" stroke="#5D8A83" stroke-width="1.5" stroke-linecap="round" stroke-linejoin="round"/>
<path d="M9 7.43408H15" stroke="#5D8A83" stroke-width="1.5" stroke-linecap="round" stroke-linejoin="round"/>
<path d="M7 11.4341H15" stroke="#5D8A83" stroke-width="1.5" stroke-linecap="round" stroke-linejoin="round"/>
<path d="M7 15.4341H10" stroke="#5D8A83" stroke-width="1.5" stroke-linecap="round" stroke-linejoin="round"/>
<path fill-rule="evenodd" clip-rule="evenodd" d="M17.293 21.1411L21.707 16.7271C22.098 16.3361 22.098 15.7031 21.707 15.3131L20.121 13.7271C19.73 13.3361 19.097 13.3361 18.707 13.7271L14.293 18.1411C14.105 18.3291 14 18.5831 14 18.8481V21.4341H16.586C16.851 21.4341 17.105 21.3291 17.293 21.1411V21.1411Z" stroke="#5D8A83" stroke-width="1.5" stroke-linecap="round" stroke-linejoin="round"/>
</svg>
