<svg width="186" height="49" viewBox="0 0 186 49" fill="none" xmlns="http://www.w3.org/2000/svg">
<path d="M60.6346 33.8455V14.6705H64.0146V33.8455H60.6346ZM77.1899 33.8455V27.7225C77.1899 27.3758 77.1899 27.0725 77.1899 26.8125C77.1899 26.5438 77.1899 26.3011 77.1899 26.0845C77.1899 25.4605 77.0989 24.9015 76.9169 24.4075C76.7436 23.9048 76.4403 23.5105 76.0069 23.2245C75.5823 22.9385 74.9929 22.7955 74.2389 22.7955C73.5803 22.7955 72.9953 22.9558 72.4839 23.2765C71.9726 23.5885 71.5696 24.0218 71.2749 24.5765C70.9889 25.1225 70.8459 25.7551 70.8459 26.4745L69.6889 25.7595C69.6889 24.6068 69.9489 23.5841 70.4689 22.6915C70.9976 21.7901 71.7039 21.0838 72.5879 20.5725C73.4719 20.0611 74.4513 19.8055 75.5259 19.8055C76.6353 19.8055 77.5669 20.0221 78.3209 20.4555C79.0836 20.8888 79.6556 21.5041 80.0369 22.3015C80.4269 23.0988 80.6219 24.0348 80.6219 25.1095C80.6219 25.5255 80.6219 25.9935 80.6219 26.5135C80.6219 27.0335 80.6219 27.5448 80.6219 28.0475V33.8455H77.1899ZM67.4269 33.8455V20.0395H70.8459V33.8455H67.4269ZM89.4825 34.1315C88.6591 34.1315 87.8748 34.0405 87.1295 33.8585C86.3928 33.6765 85.7341 33.4035 85.1535 33.0395C84.5815 32.6755 84.1265 32.2248 83.7885 31.6875C83.4591 31.1415 83.2945 30.5131 83.2945 29.8025C83.2945 29.7505 83.2945 29.6985 83.2945 29.6465C83.2945 29.5945 83.2945 29.5468 83.2945 29.5035H86.7005C86.7005 29.5468 86.7005 29.5858 86.7005 29.6205C86.7005 29.6465 86.7005 29.6855 86.7005 29.7375C86.7005 30.3008 86.9561 30.7255 87.4675 31.0115C87.9875 31.2888 88.6938 31.4275 89.5865 31.4275C90.0718 31.4275 90.5268 31.3755 90.9515 31.2715C91.3848 31.1675 91.7315 31.0071 91.9915 30.7905C92.2601 30.5738 92.3945 30.2965 92.3945 29.9585C92.3945 29.4125 92.1128 29.0225 91.5495 28.7885C90.9948 28.5545 90.1195 28.3421 88.9235 28.1515C88.2648 28.0388 87.6148 27.8871 86.9735 27.6965C86.3321 27.5058 85.7471 27.2501 85.2185 26.9295C84.6985 26.6088 84.2781 26.2101 83.9575 25.7335C83.6455 25.2568 83.4895 24.6761 83.4895 23.9915C83.4895 23.0815 83.7581 22.3188 84.2955 21.7035C84.8415 21.0795 85.5695 20.6071 86.4795 20.2865C87.3981 19.9658 88.4078 19.8055 89.5085 19.8055C90.5658 19.8055 91.5495 19.9788 92.4595 20.3255C93.3695 20.6721 94.1018 21.1705 94.6565 21.8205C95.2198 22.4705 95.5015 23.2548 95.5015 24.1735C95.5015 24.2081 95.5015 24.2471 95.5015 24.2905C95.5015 24.3251 95.5015 24.3555 95.5015 24.3815H92.1215C92.1215 24.3555 92.1215 24.3295 92.1215 24.3035C92.1215 24.2775 92.1215 24.2471 92.1215 24.2125C92.1215 23.8138 91.9958 23.4888 91.7445 23.2375C91.4931 22.9861 91.1681 22.7998 90.7695 22.6785C90.3708 22.5571 89.9505 22.4965 89.5085 22.4965C89.1185 22.4965 88.7155 22.5398 88.2995 22.6265C87.8835 22.7045 87.5368 22.8475 87.2595 23.0555C86.9821 23.2548 86.8435 23.5365 86.8435 23.9005C86.8435 24.2471 86.9865 24.5288 87.2725 24.7455C87.5585 24.9621 87.9571 25.1441 88.4685 25.2915C88.9798 25.4301 89.5691 25.5558 90.2365 25.6685C90.8691 25.7725 91.5061 25.9155 92.1475 26.0975C92.7975 26.2795 93.3911 26.5221 93.9285 26.8255C94.4658 27.1288 94.8991 27.5275 95.2285 28.0215C95.5665 28.5068 95.7355 29.1091 95.7355 29.8285C95.7355 30.5911 95.5621 31.2411 95.2155 31.7785C94.8688 32.3158 94.3965 32.7621 93.7985 33.1175C93.2091 33.4641 92.5418 33.7198 91.7965 33.8845C91.0511 34.0491 90.2798 34.1315 89.4825 34.1315ZM104.722 34.1055C104.228 34.1055 103.725 34.0578 103.214 33.9625C102.703 33.8671 102.235 33.6895 101.81 33.4295C101.385 33.1695 101.043 32.7881 100.783 32.2855C100.523 31.7828 100.393 31.1198 100.393 30.2965C100.393 30.1058 100.393 29.9151 100.393 29.7245C100.393 29.5251 100.393 29.3215 100.393 29.1135V22.7695H97.1301V20.0395H98.4561C98.9068 20.0395 99.2621 20.0221 99.5221 19.9875C99.7821 19.9441 99.9728 19.8488 100.094 19.7015C100.215 19.5541 100.293 19.3245 100.328 19.0125C100.371 18.6918 100.393 18.2498 100.393 17.6865V15.4895H103.825V20.0395H107.933V22.7695H103.825V28.3075C103.825 28.4721 103.825 28.6368 103.825 28.8015C103.825 28.9575 103.825 29.1091 103.825 29.2565C103.825 29.8978 103.903 30.4135 104.059 30.8035C104.215 31.1935 104.583 31.3885 105.164 31.3885C105.441 31.3885 105.701 31.3625 105.944 31.3105C106.195 31.2585 106.382 31.2065 106.503 31.1545V33.8325C106.338 33.8931 106.1 33.9538 105.788 34.0145C105.476 34.0751 105.121 34.1055 104.722 34.1055ZM114.866 34.1315C113.835 34.1315 112.929 33.9711 112.149 33.6505C111.369 33.3211 110.758 32.8488 110.316 32.2335C109.874 31.6181 109.653 30.8771 109.653 30.0105C109.653 29.0658 109.909 28.2901 110.42 27.6835C110.94 27.0681 111.638 26.5958 112.513 26.2665C113.388 25.9285 114.359 25.7118 115.425 25.6165C117.002 25.4605 118.103 25.3131 118.727 25.1745C119.36 25.0271 119.676 24.7931 119.676 24.4725C119.676 24.4638 119.676 24.4595 119.676 24.4595C119.676 24.4508 119.676 24.4465 119.676 24.4465C119.676 23.8398 119.403 23.3718 118.857 23.0425C118.311 22.7131 117.54 22.5485 116.543 22.5485C115.494 22.5485 114.688 22.7348 114.125 23.1075C113.57 23.4715 113.293 24.0521 113.293 24.8495H109.913C109.913 23.7661 110.199 22.8518 110.771 22.1065C111.352 21.3525 112.145 20.7805 113.15 20.3905C114.155 20.0005 115.295 19.8055 116.569 19.8055C117.756 19.8055 118.844 19.9831 119.832 20.3385C120.82 20.6938 121.613 21.2311 122.211 21.9505C122.809 22.6698 123.108 23.5668 123.108 24.6415C123.108 24.8235 123.108 25.0055 123.108 25.1875C123.108 25.3695 123.108 25.5515 123.108 25.7335V30.9335C123.108 31.2628 123.117 31.5878 123.134 31.9085C123.16 32.2205 123.208 32.5021 123.277 32.7535C123.364 33.0308 123.468 33.2648 123.589 33.4555C123.71 33.6461 123.806 33.7761 123.875 33.8455H120.495C120.434 33.7848 120.348 33.6678 120.235 33.4945C120.131 33.3125 120.036 33.1045 119.949 32.8705C119.862 32.6105 119.797 32.3331 119.754 32.0385C119.711 31.7351 119.689 31.4015 119.689 31.0375L120.365 31.5055C120.105 32.0341 119.706 32.4978 119.169 32.8965C118.64 33.2865 118.008 33.5898 117.271 33.8065C116.534 34.0231 115.733 34.1315 114.866 34.1315ZM115.698 31.4405C116.409 31.4405 117.067 31.3191 117.674 31.0765C118.281 30.8338 118.77 30.4611 119.143 29.9585C119.516 29.4471 119.702 28.7928 119.702 27.9955V26.1495L120.534 27.0855C119.979 27.2935 119.312 27.4668 118.532 27.6055C117.752 27.7355 116.963 27.8395 116.166 27.9175C115.143 28.0128 114.372 28.1905 113.852 28.4505C113.341 28.7105 113.085 29.1351 113.085 29.7245C113.085 30.2965 113.302 30.7255 113.735 31.0115C114.168 31.2975 114.823 31.4405 115.698 31.4405ZM131.859 34.1315C131.036 34.1315 130.252 34.0405 129.506 33.8585C128.77 33.6765 128.111 33.4035 127.53 33.0395C126.958 32.6755 126.503 32.2248 126.165 31.6875C125.836 31.1415 125.671 30.5131 125.671 29.8025C125.671 29.7505 125.671 29.6985 125.671 29.6465C125.671 29.5945 125.671 29.5468 125.671 29.5035H129.077C129.077 29.5468 129.077 29.5858 129.077 29.6205C129.077 29.6465 129.077 29.6855 129.077 29.7375C129.077 30.3008 129.333 30.7255 129.844 31.0115C130.364 31.2888 131.071 31.4275 131.963 31.4275C132.449 31.4275 132.904 31.3755 133.328 31.2715C133.762 31.1675 134.108 31.0071 134.368 30.7905C134.637 30.5738 134.771 30.2965 134.771 29.9585C134.771 29.4125 134.49 29.0225 133.926 28.7885C133.372 28.5545 132.496 28.3421 131.3 28.1515C130.642 28.0388 129.992 27.8871 129.35 27.6965C128.709 27.5058 128.124 27.2501 127.595 26.9295C127.075 26.6088 126.655 26.2101 126.334 25.7335C126.022 25.2568 125.866 24.6761 125.866 23.9915C125.866 23.0815 126.135 22.3188 126.672 21.7035C127.218 21.0795 127.946 20.6071 128.856 20.2865C129.775 19.9658 130.785 19.8055 131.885 19.8055C132.943 19.8055 133.926 19.9788 134.836 20.3255C135.746 20.6721 136.479 21.1705 137.033 21.8205C137.597 22.4705 137.878 23.2548 137.878 24.1735C137.878 24.2081 137.878 24.2471 137.878 24.2905C137.878 24.3251 137.878 24.3555 137.878 24.3815H134.498C134.498 24.3555 134.498 24.3295 134.498 24.3035C134.498 24.2775 134.498 24.2471 134.498 24.2125C134.498 23.8138 134.373 23.4888 134.121 23.2375C133.87 22.9861 133.545 22.7998 133.146 22.6785C132.748 22.5571 132.327 22.4965 131.885 22.4965C131.495 22.4965 131.092 22.5398 130.676 22.6265C130.26 22.7045 129.914 22.8475 129.636 23.0555C129.359 23.2548 129.22 23.5365 129.22 23.9005C129.22 24.2471 129.363 24.5288 129.649 24.7455C129.935 24.9621 130.334 25.1441 130.845 25.2915C131.357 25.4301 131.946 25.5558 132.613 25.6685C133.246 25.7725 133.883 25.9155 134.524 26.0975C135.174 26.2795 135.768 26.5221 136.305 26.8255C136.843 27.1288 137.276 27.5275 137.605 28.0215C137.943 28.5068 138.112 29.1091 138.112 29.8285C138.112 30.5911 137.939 31.2411 137.592 31.7785C137.246 32.3158 136.773 32.7621 136.175 33.1175C135.586 33.4641 134.919 33.7198 134.173 33.8845C133.428 34.0491 132.657 34.1315 131.859 34.1315ZM145.665 34.1315C144.633 34.1315 143.728 33.9711 142.948 33.6505C142.168 33.3211 141.557 32.8488 141.115 32.2335C140.673 31.6181 140.452 30.8771 140.452 30.0105C140.452 29.0658 140.707 28.2901 141.219 27.6835C141.739 27.0681 142.436 26.5958 143.312 26.2665C144.187 25.9285 145.158 25.7118 146.224 25.6165C147.801 25.4605 148.902 25.3131 149.526 25.1745C150.158 25.0271 150.475 24.7931 150.475 24.4725C150.475 24.4638 150.475 24.4595 150.475 24.4595C150.475 24.4508 150.475 24.4465 150.475 24.4465C150.475 23.8398 150.202 23.3718 149.656 23.0425C149.11 22.7131 148.338 22.5485 147.342 22.5485C146.293 22.5485 145.487 22.7348 144.924 23.1075C144.369 23.4715 144.092 24.0521 144.092 24.8495H140.712C140.712 23.7661 140.998 22.8518 141.57 22.1065C142.15 21.3525 142.943 20.7805 143.949 20.3905C144.954 20.0005 146.094 19.8055 147.368 19.8055C148.555 19.8055 149.643 19.9831 150.631 20.3385C151.619 20.6938 152.412 21.2311 153.01 21.9505C153.608 22.6698 153.907 23.5668 153.907 24.6415C153.907 24.8235 153.907 25.0055 153.907 25.1875C153.907 25.3695 153.907 25.5515 153.907 25.7335V30.9335C153.907 31.2628 153.915 31.5878 153.933 31.9085C153.959 32.2205 154.006 32.5021 154.076 32.7535C154.162 33.0308 154.266 33.2648 154.388 33.4555C154.509 33.6461 154.604 33.7761 154.674 33.8455H151.294C151.233 33.7848 151.146 33.6678 151.034 33.4945C150.93 33.3125 150.834 33.1045 150.748 32.8705C150.661 32.6105 150.596 32.3331 150.553 32.0385C150.509 31.7351 150.488 31.4015 150.488 31.0375L151.164 31.5055C150.904 32.0341 150.505 32.4978 149.968 32.8965C149.439 33.2865 148.806 33.5898 148.07 33.8065C147.333 34.0231 146.531 34.1315 145.665 34.1315ZM146.497 31.4405C147.207 31.4405 147.866 31.3191 148.473 31.0765C149.079 30.8338 149.569 30.4611 149.942 29.9585C150.314 29.4471 150.501 28.7928 150.501 27.9955V26.1495L151.333 27.0855C150.778 27.2935 150.111 27.4668 149.331 27.6055C148.551 27.7355 147.762 27.8395 146.965 27.9175C145.942 28.0128 145.171 28.1905 144.651 28.4505C144.139 28.7105 143.884 29.1351 143.884 29.7245C143.884 30.2965 144.1 30.7255 144.534 31.0115C144.967 31.2975 145.621 31.4405 146.497 31.4405ZM166.844 33.8455V27.7225C166.844 27.3758 166.844 27.0725 166.844 26.8125C166.844 26.5438 166.844 26.3011 166.844 26.0845C166.844 25.4605 166.753 24.9015 166.571 24.4075C166.398 23.9048 166.095 23.5105 165.661 23.2245C165.237 22.9385 164.647 22.7955 163.893 22.7955C163.235 22.7955 162.65 22.9558 162.138 23.2765C161.627 23.5885 161.224 24.0218 160.929 24.5765C160.643 25.1225 160.5 25.7551 160.5 26.4745L159.343 25.7595C159.343 24.6068 159.603 23.5841 160.123 22.6915C160.652 21.7901 161.358 21.0838 162.242 20.5725C163.126 20.0611 164.106 19.8055 165.18 19.8055C166.29 19.8055 167.221 20.0221 167.975 20.4555C168.738 20.8888 169.31 21.5041 169.691 22.3015C170.081 23.0988 170.276 24.0348 170.276 25.1095C170.276 25.5255 170.276 25.9935 170.276 26.5135C170.276 27.0335 170.276 27.5448 170.276 28.0475V33.8455H166.844ZM157.081 33.8455V20.0395H160.5V33.8455H157.081ZM174 39.7735C173.592 39.7735 173.228 39.7518 172.908 39.7085C172.587 39.6738 172.388 39.6391 172.31 39.6045V36.9395C172.422 36.9915 172.613 37.0305 172.882 37.0565C173.159 37.0911 173.445 37.1085 173.74 37.1085C174.216 37.1085 174.628 37.0131 174.975 36.8225C175.33 36.6318 175.633 36.3675 175.885 36.0295C176.136 35.7001 176.335 35.3145 176.483 34.8725L176.782 34.0015L172.024 20.0395H175.599L178.862 31.5575H178.446L181.631 20.0395H185.141L180.305 34.6905C179.967 35.7045 179.555 36.5928 179.07 37.3555C178.593 38.1181 177.956 38.7118 177.159 39.1365C176.361 39.5611 175.308 39.7735 174 39.7735Z" fill="white"/>
<g clip-path="url(#clip0_1102_160)">
<g filter="url(#filter0_b_1102_160)">
<circle cx="24" cy="24.0568" r="24" fill="url(#paint0_linear_1102_160)" fill-opacity="0.15"/>
<circle cx="24" cy="24.0568" r="23.5" stroke="url(#paint1_linear_1102_160)"/>
</g>
<path d="M23.1664 12.2963C23.2133 11.9012 23.7867 11.9012 23.8336 12.2963L24.2269 15.6109C24.7347 19.8909 28.1091 23.2653 32.3891 23.7731L35.7036 24.1664C36.0988 24.2133 36.0988 24.7867 35.7036 24.8336L32.3891 25.2269C28.1091 25.7347 24.7347 29.1091 24.2269 33.3891L23.8336 36.7036C23.7867 37.0988 23.2133 37.0988 23.1664 36.7036L22.7731 33.3891C22.2653 29.1091 18.8909 25.7347 14.6109 25.2269L11.2963 24.8336C10.9012 24.7867 10.9012 24.2133 11.2963 24.1664L14.6109 23.7731C18.8909 23.2653 22.2653 19.8909 22.7731 15.6109L23.1664 12.2963Z" fill="#CCEC60"/>
</g>
<defs>
<filter id="filter0_b_1102_160" x="-82" y="-81.9432" width="212" height="212" filterUnits="userSpaceOnUse" color-interpolation-filters="sRGB">
<feFlood flood-opacity="0" result="BackgroundImageFix"/>
<feGaussianBlur in="BackgroundImageFix" stdDeviation="41"/>
<feComposite in2="SourceAlpha" operator="in" result="effect1_backgroundBlur_1102_160"/>
<feBlend mode="normal" in="SourceGraphic" in2="effect1_backgroundBlur_1102_160" result="shape"/>
</filter>
<linearGradient id="paint0_linear_1102_160" x1="2.83326" y1="0.0567556" x2="68.2513" y2="14.4614" gradientUnits="userSpaceOnUse">
<stop stop-color="#91B66B" stop-opacity="0.56"/>
<stop offset="1" stop-color="#7FC573" stop-opacity="0.55"/>
</linearGradient>
<linearGradient id="paint1_linear_1102_160" x1="39.9235" y1="68.3412" x2="83.7755" y2="-66.9095" gradientUnits="userSpaceOnUse">
<stop stop-color="white" stop-opacity="0"/>
<stop offset="1" stop-color="#BCC0E1" stop-opacity="0.65"/>
</linearGradient>
<clipPath id="clip0_1102_160">
<rect y="0.0567627" width="48" height="48" rx="24" fill="white"/>
</clipPath>
</defs>
</svg>
