<svg width="329" height="663" viewBox="0 0 329 663" fill="none" xmlns="http://www.w3.org/2000/svg">
<path d="M325.068 175.48V176.382H325.97H326.877C327.174 176.382 327.342 176.382 327.465 176.392C327.504 176.396 327.529 176.399 327.543 176.402C327.552 176.408 327.56 176.416 327.566 176.425C327.568 176.439 327.572 176.463 327.575 176.503C327.585 176.626 327.586 176.794 327.586 177.091V261.502C327.586 261.799 327.585 261.967 327.575 262.09C327.572 262.13 327.568 262.155 327.566 262.168C327.56 262.177 327.552 262.185 327.543 262.191C327.529 262.194 327.504 262.197 327.465 262.201C327.342 262.211 327.174 262.211 326.877 262.211H325.97H325.068V263.114L325.068 578.697C325.068 593.379 325.067 604.337 324.357 613.026C323.648 621.704 322.236 628.04 319.457 633.494C314.522 643.18 306.647 651.055 296.961 655.99C291.507 658.769 285.171 660.181 276.493 660.891C267.804 661.6 256.846 661.601 242.164 661.601H86.4369C71.7545 661.601 60.797 661.6 52.108 660.891C43.4294 660.181 37.0934 658.769 31.6395 655.99C21.9535 651.055 14.0786 643.18 9.1433 633.494C6.36441 628.04 4.95234 621.704 4.24328 613.026C3.53336 604.337 3.53266 593.379 3.53266 578.697L3.53266 282.252V281.35H2.63052H1.11959C1.06153 281.35 1.01444 281.303 1.01444 281.245L1.01444 226.851C1.01444 226.793 1.06152 226.746 1.11959 226.746H2.63052H3.53266V225.844L3.53266 213.253V212.351H2.63052H1.11959C1.06152 212.351 1.01444 212.304 1.01444 212.246L1.01444 157.852C1.01444 157.794 1.06151 157.747 1.11959 157.747H2.63052H3.53266V156.845L3.53266 133.173V132.271H2.63052H1.11959C1.0615 132.271 1.01444 132.224 1.01444 132.166L1.01444 104.969C1.01444 104.911 1.06151 104.864 1.11959 104.864H2.63052H3.53266V103.962L3.53266 84.0178C3.53266 69.3354 3.53336 58.3779 4.24328 49.6888C4.95234 41.0103 6.36441 34.6743 9.1433 29.2204C14.0786 19.5344 21.9535 11.6595 31.6395 6.7242C37.0934 3.94531 43.4294 2.53325 52.1079 1.82418C60.797 1.11426 71.7545 1.11356 86.4369 1.11356L242.164 1.11356C256.846 1.11356 267.804 1.11426 276.493 1.82418C285.171 2.53325 291.507 3.94531 296.961 6.7242C306.647 11.6595 314.522 19.5344 319.457 29.2204C322.236 34.6743 323.648 41.0103 324.357 49.6888C325.067 58.3779 325.068 69.3354 325.068 84.0178V175.48Z" stroke="#CCEC60" stroke-width="1.80426"/>
<path d="M145.56 27.9118C145.56 26.4629 146.735 25.2884 148.184 25.2884L180.417 25.2884C181.866 25.2884 183.04 26.4629 183.04 27.9118C183.04 29.3607 181.866 30.5352 180.417 30.5352L148.184 30.5352C146.735 30.5352 145.56 29.3607 145.56 27.9118Z" stroke="#CCEC60" stroke-width="1.80426"/>
<path d="M202.577 27.9118C202.577 25.9647 200.999 24.3863 199.052 24.3863C197.105 24.3863 195.526 25.9647 195.526 27.9118C195.526 29.8589 197.105 31.4373 199.052 31.4373C200.999 31.4373 202.577 29.8589 202.577 27.9118Z" fill="#CCEC60"/>
</svg>
